<svg xmlns="http://www.w3.org/2000/svg" width="372" height="269" viewBox="0 0 372 269">
  <defs>
    <style>
      .cls-1 {
        fill: #f0c;
        fill-rule: evenodd;
      }
    </style>
  </defs>
  <path id="Forme_14_1" data-name="Forme 14 1" class="cls-1" d="M163.92,0.813c-1.2-2.481-56.483,90.137-67.72,109.261-4.3,7.313-4.339,13.894,0,19.866,28.626,39.4,95.023,138.524,99.323,139.06,3.99-.114,83.556-120.125,83.522-125.816C278.51,138.209,171.307,2.457,170.692,4.124c-0.6,1.637,96.833,133.516,97.066,139.061,0.327,6.545-68.114,108.834-72.235,109.261-4.511-1.21-66.069-90.08-94.808-129.127-1.688-6.291.341-8.954,2.257-13.244C120.345,77.54,165.111,3.265,163.92.813Zm72.235,79.463c0.521,0.975,12.262-6.549,15.8-23.177,1.062-4.989,2.7-16.958-2.258-26.488-5.49-10.546-14.679-10.429-18.058-9.933-15.313,2.25-23.568,28.569-22.574,29.8,1.124,1.389,15.02-28.21,27.088-23.177,6.675,2.784,11.608,15.4,11.287,26.488C246.99,69.394,235.624,79.28,236.155,80.276Z"/>
</svg>
